<?xml version="1.0" encoding="UTF-8"?>
<svg xmlns="http://www.w3.org/2000/svg" version="1.1" viewBox="0 0 1021.18 652.68">
  <defs>
    <style>
      .cls-1 {
        fill: none;
        stroke: #000;
        stroke-linecap: round;
        stroke-linejoin: round;
        stroke-width: .71px;
      }
    </style>
  </defs>
  <!-- Generator: Adobe Illustrator 28.7.2, SVG Export Plug-In . SVG Version: 1.2.0 Build 154)  -->
  <g>
    <g id="_x30_">
      <g id="CIRCLE">
        <circle class="cls-1" cx="57.05" cy="57.05" r="6.38"/>
      </g>
      <g id="CIRCLE-2" data-name="CIRCLE">
        <circle class="cls-1" cx="57.05" cy="595.63" r="6.38"/>
      </g>
      <g id="CIRCLE-3" data-name="CIRCLE">
        <circle class="cls-1" cx="964.13" cy="595.63" r="6.38"/>
      </g>
      <g id="CIRCLE-4" data-name="CIRCLE">
        <circle class="cls-1" cx="964.13" cy="57.05" r="6.38"/>
      </g>
      <g id="CIRCLE-5" data-name="CIRCLE">
        <circle class="cls-1" cx="510.59" cy="57.05" r="6.38"/>
      </g>
      <g id="ARC">
        <path class="cls-1" d="M232.97,178.49c26.56-6.71,42.66-33.68,35.95-60.25-6.71-26.56-33.68-42.66-60.25-35.95-26.56,6.71-42.66,33.68-35.95,60.25,1.47,5.83,4,11.35,7.45,16.28"/>
      </g>
      <g id="ARC-2" data-name="ARC">
        <path class="cls-1" d="M143.34,242.75c11.33,22,37.14,32.28,60.5,24.11"/>
      </g>
      <g id="ARC-3" data-name="ARC">
        <path class="cls-1" d="M142.64,179.33c-12.54-24.36-42.46-33.93-66.81-21.39-24.36,12.54-33.93,42.46-21.39,66.81,12.54,24.36,42.46,33.93,66.81,21.39,3.24-1.67,6.28-3.69,9.08-6.02"/>
      </g>
      <g id="ARC-4" data-name="ARC">
        <path class="cls-1" d="M215.04,273.5c4.47,27.03,30.01,45.31,57.04,40.84,2.82-.47,5.6-1.18,8.29-2.12"/>
      </g>
      <g id="ARC-5" data-name="ARC">
        <path class="cls-1" d="M291.57,318.85c4.47,27.03,30.01,45.31,57.04,40.84,27.03-4.47,45.31-30.01,40.84-57.04s-30.01-45.31-57.04-40.84c-2.82.47-5.6,1.18-8.29,2.12"/>
      </g>
      <g id="CIRCLE-6" data-name="CIRCLE">
        <circle class="cls-1" cx="317.83" cy="460.98" r="49.61"/>
      </g>
      <g id="ARC-6" data-name="ARC">
        <path class="cls-1" d="M472.19,447.13c-19.28,19.47-19.12,50.88.35,70.15,18.07,17.89,46.75,19.22,66.39,3.08"/>
      </g>
      <g id="ARC-7" data-name="ARC">
        <path class="cls-1" d="M619.34,464.57c21.6-12.26,33.32-36.64,29.4-61.17"/>
      </g>
      <g id="ARC-8" data-name="ARC">
        <path class="cls-1" d="M641.56,79.85c-24.2-12.84-54.23-3.64-67.07,20.56-11.77,22.17-5.12,49.64,15.48,63.98"/>
      </g>
      <g id="ARC-9" data-name="ARC">
        <path class="cls-1" d="M760.58,109.33c10.4-25.35-1.72-54.32-27.06-64.72-24.67-10.12-52.92,1.07-63.97,25.34"/>
      </g>
      <g id="ARC-10" data-name="ARC">
        <path class="cls-1" d="M803.72,161.31c-6.4-15.5-19.05-27.58-34.83-33.27"/>
      </g>
      <g id="ARC-11" data-name="ARC">
        <path class="cls-1" d="M743.61,344.41c14.8,7.8,32.2,9.02,47.95,3.35"/>
      </g>
      <g id="ARC-12" data-name="ARC">
        <path class="cls-1" d="M810.1,357.57c8.17,31.85,40.61,51.04,72.45,42.87,31.85-8.17,51.04-40.61,42.87-72.45-7.03-27.39-32.36-46.06-60.6-44.66"/>
      </g>
      <g id="ARC-13" data-name="ARC">
        <path class="cls-1" d="M864.82,276.99c32.55-4.64,55.17-34.78,50.53-67.33-4.64-32.55-34.78-55.17-67.33-50.53-8.39,1.2-16.43,4.17-23.59,8.73"/>
      </g>
      <g id="ARC-14" data-name="ARC">
        <path class="cls-1" d="M236.38,211.94c-1.21-7.31-4.04-14.26-8.29-20.33"/>
      </g>
      <g id="ARC-15" data-name="ARC">
        <path class="cls-1" d="M312.92,257.29c-4.47-27.03-30.01-45.31-57.04-40.84-2.82.47-5.6,1.18-8.29,2.12"/>
      </g>
      <g id="ARC-16" data-name="ARC">
        <path class="cls-1" d="M175.29,171.94c-7.22,1.82-13.93,5.25-19.64,10.02"/>
      </g>
      <g id="ARC-17" data-name="ARC">
        <path class="cls-1" d="M543.74,374.87c2.38-2.4,3.11-5.98,1.86-9.13"/>
      </g>
      <g id="ARC-18" data-name="ARC">
        <path class="cls-1" d="M513.87,269.52c-19.64,26.37-14.19,63.66,12.18,83.3,4.47,3.33,9.38,6.01,14.59,7.97"/>
      </g>
      <g id="ARC-19" data-name="ARC">
        <path class="cls-1" d="M578.55,178.84c-16.49-21.88-47.6-26.24-69.47-9.75s-26.24,47.6-9.75,69.47c3.16,4.19,6.97,7.86,11.28,10.86"/>
      </g>
      <g id="ARC-20" data-name="ARC">
        <path class="cls-1" d="M578.55,178.84c2.68,3.55,6.87,5.64,11.32,5.64"/>
      </g>
      <g id="ARC-21" data-name="ARC">
        <path class="cls-1" d="M664.01,387.04c25.61,2.3,49.8-12.1,59.98-35.71"/>
      </g>
      <g id="ARC-22" data-name="ARC">
        <path class="cls-1" d="M513.87,269.52c4.68-6.28,3.38-15.16-2.9-19.83-.12-.09-.25-.18-.37-.27"/>
      </g>
      <g id="ARC-23" data-name="ARC">
        <path class="cls-1" d="M810.1,357.57c-1.94-7.58-9.67-12.15-17.25-10.21-.43.11-.86.24-1.28.4"/>
      </g>
      <g id="ARC-24" data-name="ARC">
        <path class="cls-1" d="M743.61,344.41c-6.92-3.65-15.5-1-19.15,5.93-.17.33-.33.66-.48,1"/>
      </g>
      <g id="ARC-25" data-name="ARC">
        <path class="cls-1" d="M664.01,387.04c-7.8-.7-14.68,5.05-15.38,12.85-.1,1.17-.06,2.35.12,3.51"/>
      </g>
      <g id="ARC-26" data-name="ARC">
        <path class="cls-1" d="M803.72,161.31c2.99,7.23,11.28,10.68,18.51,7.69.77-.32,1.5-.7,2.2-1.15"/>
      </g>
      <g id="ARC-27" data-name="ARC">
        <path class="cls-1" d="M594.18,183.05c3.65-6.37,1.82-14.48-4.21-18.67"/>
      </g>
      <g id="ARC-28" data-name="ARC">
        <path class="cls-1" d="M760.58,109.33c-2.97,7.24.49,15.52,7.73,18.49.19.08.38.15.57.22"/>
      </g>
      <g id="ARC-29" data-name="ARC">
        <path class="cls-1" d="M661.76,77.28c3.45-1.34,6.25-3.97,7.78-7.34"/>
      </g>
      <g id="ARC-30" data-name="ARC">
        <path class="cls-1" d="M641.56,79.85c3.63,1.93,7.92,2.18,11.76.7"/>
      </g>
      <g id="ARC-31" data-name="ARC">
        <path class="cls-1" d="M591.72,184.48c1.02,0,1.96-.54,2.46-1.43"/>
      </g>
      <g id="ARC-32" data-name="ARC">
        <path class="cls-1" d="M143.34,242.75c-2.15-4.18-7.28-5.82-11.45-3.67-.56.29-1.08.63-1.56,1.03"/>
      </g>
      <g id="ARC-33" data-name="ARC">
        <path class="cls-1" d="M142.64,179.33c2.15,4.18,7.28,5.82,11.45,3.67.56-.29,1.08-.63,1.56-1.03"/>
      </g>
      <g id="ARC-34" data-name="ARC">
        <path class="cls-1" d="M175.29,171.94c4.55-1.15,7.31-5.77,6.16-10.33-.25-1-.69-1.95-1.28-2.79"/>
      </g>
      <g id="ARC-35" data-name="ARC">
        <path class="cls-1" d="M232.97,178.49c-4.55,1.15-7.31,5.77-6.16,10.33.25,1,.69,1.95,1.28,2.79"/>
      </g>
      <g id="ARC-36" data-name="ARC">
        <path class="cls-1" d="M236.38,211.94c.77,4.63,5.15,7.77,9.78,7,.48-.08.96-.2,1.42-.36"/>
      </g>
      <g id="ARC-37" data-name="ARC">
        <path class="cls-1" d="M215.04,273.5c-.77-4.63-5.15-7.77-9.78-7-.48.08-.96.2-1.42.36"/>
      </g>
      <g id="ARC-38" data-name="ARC">
        <path class="cls-1" d="M291.57,318.85c-.77-4.63-5.15-7.77-9.78-7-.48.08-.96.2-1.42.36"/>
      </g>
      <g id="ARC-39" data-name="ARC">
        <path class="cls-1" d="M312.92,257.29c.77,4.63,5.15,7.77,9.78,7,.48-.08.96-.2,1.42-.36"/>
      </g>
      <g id="ARC-40" data-name="ARC">
        <path class="cls-1" d="M545.55,365.61c-.88-2.22-2.67-3.97-4.91-4.82"/>
      </g>
      <g id="LINE">
        <line class="cls-1" x1="992.48" y1=".35" x2="28.7" y2=".35"/>
      </g>
      <g id="LINE-2" data-name="LINE">
        <line class="cls-1" x1=".35" y1="28.7" x2=".35" y2="623.98"/>
      </g>
      <g id="LINE-3" data-name="LINE">
        <line class="cls-1" x1="28.7" y1="652.32" x2="992.48" y2="652.32"/>
      </g>
      <g id="LINE-4" data-name="LINE">
        <line class="cls-1" x1="1020.83" y1="623.98" x2="1020.83" y2="28.7"/>
      </g>
      <g id="LINE-5" data-name="LINE">
        <line class="cls-1" x1="472.19" y1="447.13" x2="543.74" y2="374.87"/>
      </g>
      <g id="LINE-6" data-name="LINE">
        <line class="cls-1" x1="538.94" y1="520.36" x2="628.17" y2="458.44"/>
      </g>
      <g id="LINE-7" data-name="LINE">
        <line class="cls-1" x1="864.82" y1="276.99" x2="864.82" y2="283.32"/>
      </g>
      <g id="LINE-8" data-name="LINE">
        <line class="cls-1" x1="653.32" y1="80.54" x2="661.76" y2="77.28"/>
      </g>
      <g id="LINE-9" data-name="LINE">
        <line class="cls-1" x1="591.72" y1="184.48" x2="589.87" y2="184.48"/>
      </g>
      <g id="LINE-10" data-name="LINE">
        <line class="cls-1" x1="545.6" y1="365.74" x2="545.55" y2="365.61"/>
      </g>
      <g id="ARC-41" data-name="ARC">
        <path class="cls-1" d="M28.7.35C13.05.35.36,13.02.35,28.67c0,.01,0,.02,0,.03"/>
      </g>
      <g id="ARC-42" data-name="ARC">
        <path class="cls-1" d="M.35,623.98c0,15.65,12.67,28.34,28.31,28.35.01,0,.02,0,.03,0"/>
      </g>
      <g id="ARC-43" data-name="ARC">
        <path class="cls-1" d="M992.48,652.32c15.65,0,28.34-12.67,28.35-28.31,0-.01,0-.02,0-.03"/>
      </g>
      <g id="ARC-44" data-name="ARC">
        <path class="cls-1" d="M1020.83,28.7c0-15.65-12.67-28.34-28.31-28.35-.01,0-.02,0-.03,0"/>
      </g>
    </g>
  </g>
</svg>